<svg enable-background="new 0 0 1200 1200" height="1200" viewBox="0 0 1200 1200" width="1200" xmlns="http://www.w3.org/2000/svg"><path d="m1145.858 561.954c-4.492-3.769-11.207-5.954-17.385-12.954h1.006l-14.024-7h-.016c-.601 0-1.131-.935-1.498-1.375 0 0-31.033-23.814-115.678-19.735-71.878 3.464-144.814 21.777-206.429 29.293-59.165 7.218-410.745 64.115-416.285 64.906s-15.037 3.962-23.742-3.952c-1.247-1.133-3.942-4.332-7.638-8.973l.476.086-47.629-62.701s-.076-.022-.191-.056c-17.747-23.978-32.864-44.689-32.864-44.689s-15.828 3.166-19.785 6.331c2.097 6.554 4.739 14.742 7.685 23.833-.196-.127-.329-.237-.329-.313l20.87 64.752.472.084c2.723 8.332 5.289 16.179 7.549 23.084-41.03-5.296-160.558-20.828-180.432-23.715-1.471-.265-2.514-.476-3.077-.622-11.728-3.06-46.912-1.53-46.912-1.53s28.045 4.589 49.461 8.669c21.416 4.079 49.461 11.218 93.823 18.357 14.328 2.306 50.047 7.378 91.833 13.188 2.59 7.908 4.166 12.711 4.166 12.711s-15.865 5.146-25.185 8.493c-35.5-.309-81.698-.324-104.821-.206-8.523-.013-14.233.031-15.625.147-6.435.536-13.697 2.337-16.486 3.076-1.64.4-2.676.678-2.676.678s2.374-.061 4.772-.16c16.032.951 87.051 5.174 124.407 7.559.1 4.208 3.379 8.865 15.037 11.277l27.919 7.484s-.152-.138-.325-.424c13.454 3.629 29.74 8.054 46.347 12.193-.837.16-1.672.307-2.509.47 36.205 10.971 65.362 12.522 75.28 12.712.065.002.129.003.195.004 2.256.041 3.463.01 3.463.01 36.405-.791 83.099-9.497 107.633-11.08 5.531-.357 15.898-1.077 29.104-2.048 1.299.267 2.646.562 4.096.912 5.723 12.264 17.01 13.055 25.468 13.413 1.23.242 2.358.38 3.336.439 12.019.942 45.012 1.649 62.47-4.674 10.826-2.534 17.166-10.379 20.171-19.813 16.664-1.666 31.247-3.326 41.337-4.849 41.945-6.331 56.191-8.706 59.356-10.288.213-.107 1.116-.284 2.586-.518 7.419 1.786 13.523 5.101 18.469 10.541 5.383 11.537 16.002 12.282 23.958 12.618 1.157.227 2.218.357 3.138.413 11.307.887 42.344 1.552 58.767-4.397 8.618-2.017 14.214-7.614 17.447-14.664 2.572-5.019 4.074-11.159 4.074-18.305 0-.355-.029-.699-.036-1.051 26.485-2.958 49.868-5.528 61.537-6.796 36.405-3.957 113.519-13.885 151.161-35.614 9.181-4.637 14.547-9.085 17.666-11.921 20.578-15.192 22.843-26.767 15.042-33.31z" fill="#1b1f18"/></svg>