<?xml version="1.0" encoding="iso-8859-1"?>
<!-- Generator: Adobe Illustrator 19.0.0, SVG Export Plug-In . SVG Version: 6.00 Build 0)  -->
<svg version="1.1" id="Capa_1" xmlns="http://www.w3.org/2000/svg" xmlns:xlink="http://www.w3.org/1999/xlink" x="0px" y="0px"
	 viewBox="0 0 512 512" style="enable-background:new 0 0 512 512;" xml:space="preserve">
<g>
	<rect x="42.667" y="341.333" style="fill:#51ABD8;" width="68.267" height="170.667"/>
	<rect x="162.133" y="290.133" style="fill:#51ABD8;" width="68.267" height="221.867"/>
	<rect x="281.6" y="238.933" style="fill:#51ABD8;" width="68.267" height="273.067"/>
	<rect x="401.067" y="187.733" style="fill:#51ABD8;" width="68.267" height="324.267"/>
</g>
<g>
	<polygon style="fill:#DEDAD8;" points="110.933,512 110.933,341.333 128,358.4 128,512 	"/>
	<polygon style="fill:#DEDAD8;" points="230.4,512 230.4,290.133 247.467,307.2 247.467,512 	"/>
	<polygon style="fill:#DEDAD8;" points="349.867,512 349.867,238.933 366.933,256 366.933,512 	"/>
	<polygon style="fill:#DEDAD8;" points="469.333,512 469.333,187.733 486.4,204.8 486.4,512 	"/>
</g>
<g>
	<rect x="42.667" y="341.333" style="fill:#FFC117;" width="68.267" height="34.133"/>
	<rect x="162.133" y="290.133" style="fill:#FFC117;" width="68.267" height="34.133"/>
	<rect x="281.6" y="238.933" style="fill:#FFC117;" width="68.267" height="34.133"/>
	<rect x="401.067" y="187.733" style="fill:#FFC117;" width="68.267" height="34.133"/>
</g>
<polygon style="opacity:0.3;fill:#1588C9;enable-background:new    ;" points="428.186,512 469.333,512 469.333,221.867 
	441.079,221.867 "/>
<polygon style="opacity:0.3;fill:#E97424;enable-background:new    ;" points="442.598,187.733 441.079,221.867 469.333,221.867 
	469.333,187.733 "/>
<polygon style="opacity:0.3;fill:#1588C9;enable-background:new    ;" points="308.719,512 349.867,512 349.867,273.067 
	319.334,273.067 "/>
<polygon style="opacity:0.3;fill:#E97424;enable-background:new    ;" points="320.853,238.933 319.334,273.067 349.867,273.067 
	349.867,238.933 "/>
<polygon style="opacity:0.3;fill:#1588C9;enable-background:new    ;" points="189.252,512 230.4,512 230.4,324.267 
	197.598,324.267 "/>
<polygon style="opacity:0.3;fill:#E97424;enable-background:new    ;" points="199.108,290.133 197.598,324.267 230.4,324.267 
	230.4,290.133 "/>
<polygon style="opacity:0.3;fill:#1588C9;enable-background:new    ;" points="69.786,512 110.933,512 110.933,375.467 
	75.853,375.467 "/>
<polygon style="opacity:0.3;fill:#E97424;enable-background:new    ;" points="77.372,341.333 75.853,375.467 110.933,375.467 
	110.933,341.333 "/>
<rect x="153.6" y="247.467" width="51.2" height="17.067"/>
<rect x="221.867" y="247.467" width="17.067" height="17.067"/>
<path d="M477.867,187.733c0-4.71-3.823-8.533-8.533-8.533h-68.267c-4.71,0-8.533,3.823-8.533,8.533v307.2H358.4v-256
	c0-4.71-3.823-8.533-8.533-8.533H281.6c-4.71,0-8.533,3.823-8.533,8.533v256h-34.133v-204.8c0-4.71-3.823-8.533-8.533-8.533h-68.267
	c-4.71,0-8.533,3.823-8.533,8.533v204.8h-34.133v-153.6c0-4.71-3.823-8.533-8.533-8.533H42.667c-4.71,0-8.533,3.823-8.533,8.533
	v153.6H0V512h512v-17.067h-34.133V187.733z M51.2,494.933V349.867h51.2v145.067H51.2z M170.667,494.933V298.667h51.2v196.267
	H170.667z M290.133,494.933V247.467h51.2v247.467H290.133z M409.6,494.933V196.267h51.2v298.667H409.6z"/>
<rect x="34.133" y="298.667" width="51.2" height="17.067"/>
<rect x="102.4" y="298.667" width="17.067" height="17.067"/>
<rect x="273.067" y="196.267" width="51.2" height="17.067"/>
<rect x="341.333" y="196.267" width="17.067" height="17.067"/>
<rect x="392.533" y="145.067" width="51.2" height="17.067"/>
<rect x="460.8" y="145.067" width="17.067" height="17.067"/>
<path d="M162.133,105.933l62.234,62.234c3.328,3.328,8.738,3.328,12.066,0L349.867,54.733L395.034,99.9
	c3.328,3.328,8.738,3.328,12.066,0l70.767-70.767v30.601h17.067v-51.2c0-4.71-3.823-8.533-8.533-8.533h-51.2v17.067h30.601
	l-64.734,64.734L355.9,36.634c-3.328-3.328-8.738-3.328-12.066,0L230.4,150.067l-62.234-62.234c-3.328-3.328-8.738-3.328-12.066,0
	l-102.4,102.4L65.766,202.3L162.133,105.933z"/>
<rect x="35.747" y="202.665" transform="matrix(-0.7071 0.7071 -0.7071 -0.7071 225.813 328.8618)" width="18.099" height="17.067"/>
<g>
</g>
<g>
</g>
<g>
</g>
<g>
</g>
<g>
</g>
<g>
</g>
<g>
</g>
<g>
</g>
<g>
</g>
<g>
</g>
<g>
</g>
<g>
</g>
<g>
</g>
<g>
</g>
<g>
</g>
</svg>
