<?xml version="1.0" encoding="iso-8859-1"?>
<!-- Generator: Adobe Illustrator 19.0.0, SVG Export Plug-In . SVG Version: 6.00 Build 0)  -->
<svg version="1.1" id="Capa_1" xmlns="http://www.w3.org/2000/svg" xmlns:xlink="http://www.w3.org/1999/xlink" x="0px" y="0px"
	 viewBox="0 0 480.063 480.063" style="enable-background:new 0 0 480.063 480.063;" xml:space="preserve">
<path style="fill:#29ABE2;" d="M272.03,208.063h48c44.183,0.115,80.093-35.609,80.208-79.791s-35.608-80.093-79.791-80.208
	c-9.33-0.024-18.593,1.584-27.369,4.751c-10.584-33.724-46.503-52.483-80.227-41.9c-31.504,9.887-50.315,42.118-43.429,74.412
	c-32.439-14.038-70.116,0.879-84.154,33.318s0.879,70.116,33.318,84.154c8.032,3.476,16.692,5.268,25.444,5.264H272.03z"/>
<polygon style="fill:#999999;" points="392.03,472.063 381.998,421.919 338.062,421.919 328.03,472.063 "/>
<rect x="248.03" y="280.063" style="fill:#29ABE2;" width="224" height="152"/>
<g>
	<rect x="304.03" y="464.063" style="fill:#CCCCCC;" width="112" height="16"/>
	<rect x="248.03" y="400.063" style="fill:#CCCCCC;" width="224" height="32"/>
</g>
<rect x="24.03" y="280.063" style="fill:#29ABE2;" width="176" height="96"/>
<polygon style="fill:#CCCCCC;" points="216.03,472.063 8.03,472.063 24.03,376.063 200.03,376.063 "/>
<path d="M288.174,320.063h31.856v-16h-31.856c-8.912,0.009-16.135,7.232-16.144,16.144v23.856h16L288.174,320.063z"/>
<rect x="336.03" y="304.063" width="16" height="16"/>
<path d="M472.03,272.063h-104v-32c0-4.418-3.582-8-8-8h-112v-44.688l29.656-29.656c1.5-1.5,2.344-3.534,2.344-5.656v-24h-16v20.688
	l-16,16v-52.688h-16v68.688l-16-16v-28.688h-16v32c0,2.122,0.844,4.156,2.344,5.656l29.656,29.656v28.688h-120c-4.418,0-8,3.582-8,8
	v32h-80c-4.418,0-8,3.582-8,8v95.344L0.142,470.751c-0.725,4.358,2.221,8.479,6.58,9.204c0.432,0.072,0.87,0.108,1.308,0.108h208
	c4.418-0.002,7.998-3.585,7.996-8.004c0-0.438-0.036-0.876-0.108-1.308l-15.888-95.344v-95.344c0-4.418-3.582-8-8-8h-80v-24h232v24
	h-104c-4.418,0-8,3.582-8,8v152c0,4.418,3.582,8,8,8h78.24l-4.8,24h-17.44v16h112v-16h-17.44l-4.8-24h78.24c4.418,0,8-3.582,8-8
	v-152C480.03,275.645,476.449,272.063,472.03,272.063z M17.478,464.063l13.328-80h162.448l13.328,80H17.478z M192.03,368.063h-160
	v-80h160V368.063z M464.03,288.063v104h-208v-104H464.03z M382.27,464.063h-44.48l4.8-24h34.88L382.27,464.063z M256.03,424.063v-16
	h208v16H256.03z"/>
<rect x="40.03" y="400.063" width="16" height="16"/>
<rect x="40.03" y="432.063" width="16" height="16"/>
<rect x="72.03" y="432.063" width="80" height="16"/>
<rect x="168.03" y="432.063" width="16" height="16"/>
<rect x="72.03" y="400.063" width="16" height="16"/>
<rect x="104.03" y="400.063" width="16" height="16"/>
<rect x="136.03" y="400.063" width="16" height="16"/>
<rect x="168.03" y="400.063" width="16" height="16"/>
<path d="M64.174,320.063H96.03v-16H64.174c-8.912,0.009-16.135,7.232-16.144,16.144v23.856h16L64.174,320.063z"/>
<rect x="112.03" y="304.063" width="16" height="16"/>
<path d="M272.03,216.063h48c48.601,0,88-39.399,88-88s-39.399-88-88-88c-7.47,0.005-14.907,0.976-22.128,2.888
	c-16.053-36.38-58.559-52.858-94.939-36.805c-26.11,11.522-42.951,37.378-42.933,65.917c0,0.6,0,1.192,0,1.8
	c-38.77-8.836-77.363,15.431-86.199,54.201s15.431,77.363,54.201,86.199c5.248,1.196,10.615,1.8,15.998,1.8h64v-16h-64
	c-30.928,0-56-25.072-56-56s25.072-56,56-56c7.64-0.012,15.201,1.554,22.208,4.6c4.055,1.754,8.764-0.111,10.519-4.166
	c0.655-1.515,0.826-3.195,0.489-4.81c-0.8-3.823-1.207-7.718-1.216-11.624c0.008-30.928,25.087-55.993,56.015-55.985
	c24.445,0.006,46.061,15.868,53.401,39.185c1.33,4.213,5.824,6.551,10.037,5.221c0.1-0.032,0.2-0.065,0.299-0.101
	c37.379-13.566,78.678,5.739,92.243,43.118s-5.739,78.678-43.118,92.243c-7.973,2.894-16.395,4.356-24.877,4.319h-48V216.063z"/>
<rect x="232.03" y="80.063" width="16" height="16"/>
<rect x="200.03" y="104.063" width="16" height="16"/>
<rect x="264.03" y="96.063" width="16" height="16"/>
<g>
</g>
<g>
</g>
<g>
</g>
<g>
</g>
<g>
</g>
<g>
</g>
<g>
</g>
<g>
</g>
<g>
</g>
<g>
</g>
<g>
</g>
<g>
</g>
<g>
</g>
<g>
</g>
<g>
</g>
</svg>
